<?xml version="1.0" encoding="UTF-8" standalone="no"?>
<!-- Created with Inkscape (http://www.inkscape.org/) -->

<svg
   width="945.83057"
   height="566.24579"
   viewBox="0 0 250.25099 149.8192"
   version="1.1"
   id="svg1"
   xmlns:xlink="http://www.w3.org/1999/xlink"
   xmlns="http://www.w3.org/2000/svg"
   xmlns:svg="http://www.w3.org/2000/svg">
  <defs
     id="defs1">
    <rect
       x="525.78992"
       y="-112.66926"
       width="248.98515"
       height="98.759476"
       id="rect86" />
    <linearGradient
       id="linearGradient24">
      <stop
         style="stop-color:#ffffff;stop-opacity:1;"
         offset="0.2566767"
         id="stop23" />
      <stop
         style="stop-color:#ffffff;stop-opacity:1;"
         offset="1"
         id="stop24" />
    </linearGradient>
    <linearGradient
       id="linearGradient21">
      <stop
         style="stop-color:#000000;stop-opacity:1;"
         offset="0"
         id="stop21" />
      <stop
         style="stop-color:#000000;stop-opacity:0;"
         offset="1"
         id="stop22" />
    </linearGradient>
    <linearGradient
       id="linearGradient17">
      <stop
         style="stop-color:#ffffff;stop-opacity:1;"
         offset="0.26995555"
         id="stop17" />
      <stop
         style="stop-color:#ffffff;stop-opacity:1;"
         offset="1"
         id="stop18" />
    </linearGradient>
    <linearGradient
       xlink:href="#linearGradient17"
       id="linearGradient18"
       x1="112.35884"
       y1="34.048576"
       x2="112.35884"
       y2="89.479515"
       gradientUnits="userSpaceOnUse" />
    <linearGradient
       xlink:href="#linearGradient21"
       id="linearGradient22"
       x1="71.981483"
       y1="65.147179"
       x2="153.18671"
       y2="65.147179"
       gradientUnits="userSpaceOnUse"
       gradientTransform="matrix(2.5487982,0,0,2.6371238,-68.034013,-80.489978)" />
    <linearGradient
       xlink:href="#linearGradient24"
       id="linearGradient23"
       gradientUnits="userSpaceOnUse"
       x1="112.35884"
       y1="34.048576"
       x2="112.35884"
       y2="89.479515"
       gradientTransform="matrix(2.5487982,0,0,2.6371238,-68.034013,-80.489978)" />
    <linearGradient
       xlink:href="#linearGradient24"
       id="linearGradient42"
       gradientUnits="userSpaceOnUse"
       x1="112.35884"
       y1="34.048576"
       x2="112.35884"
       y2="89.479515"
       gradientTransform="matrix(2.8360661,0,0,2.8360661,-97.557181,-101.62036)" />
    <linearGradient
       xlink:href="#linearGradient21"
       id="linearGradient43"
       gradientUnits="userSpaceOnUse"
       x1="71.981483"
       y1="65.147179"
       x2="153.18671"
       y2="65.147179"
       gradientTransform="matrix(2.8360661,0,0,2.8360661,-97.557181,-101.62036)" />
    <linearGradient
       xlink:href="#linearGradient24"
       id="linearGradient44"
       gradientUnits="userSpaceOnUse"
       x1="112.35884"
       y1="34.048576"
       x2="112.35884"
       y2="89.479515"
       gradientTransform="matrix(4.474924,0,0,4.0279851,-271.95395,-206.11344)" />
    <linearGradient
       xlink:href="#linearGradient21"
       id="linearGradient45"
       gradientUnits="userSpaceOnUse"
       x1="71.981483"
       y1="65.147179"
       x2="153.18671"
       y2="65.147179"
       gradientTransform="matrix(4.474924,0,0,4.0279851,-271.95395,-206.11344)" />
    <linearGradient
       xlink:href="#linearGradient24"
       id="linearGradient46"
       gradientUnits="userSpaceOnUse"
       x1="112.35884"
       y1="34.048576"
       x2="112.35884"
       y2="89.479515"
       gradientTransform="matrix(2.9516921,0,0,2.9516921,-85.117669,-114.2163)" />
    <linearGradient
       xlink:href="#linearGradient21"
       id="linearGradient47"
       gradientUnits="userSpaceOnUse"
       x1="71.981483"
       y1="65.147179"
       x2="153.18671"
       y2="65.147179"
       gradientTransform="matrix(2.9516921,0,0,2.9516921,-85.117669,-114.2163)" />
    <linearGradient
       xlink:href="#linearGradient24"
       id="linearGradient48"
       gradientUnits="userSpaceOnUse"
       x1="112.35884"
       y1="34.048576"
       x2="112.35884"
       y2="89.479515"
       gradientTransform="matrix(2.9516921,0,0,2.9516921,-109.49589,-102.08969)" />
    <linearGradient
       xlink:href="#linearGradient21"
       id="linearGradient49"
       gradientUnits="userSpaceOnUse"
       x1="71.981483"
       y1="65.147179"
       x2="153.18671"
       y2="65.147179"
       gradientTransform="matrix(2.9516921,0,0,2.9516921,-109.49589,-102.08969)" />
    <linearGradient
       xlink:href="#linearGradient24"
       id="linearGradient50"
       gradientUnits="userSpaceOnUse"
       x1="112.35884"
       y1="34.048576"
       x2="112.35884"
       y2="89.479515"
       gradientTransform="matrix(3.3629212,0,0,3.3125248,-161.91144,-115.49848)" />
    <linearGradient
       xlink:href="#linearGradient21"
       id="linearGradient51"
       gradientUnits="userSpaceOnUse"
       x1="71.981483"
       y1="65.147179"
       x2="153.18671"
       y2="65.147179"
       gradientTransform="matrix(3.3629212,0,0,3.3125248,-161.91144,-115.49848)" />
    <linearGradient
       xlink:href="#linearGradient17"
       id="linearGradient2"
       gradientUnits="userSpaceOnUse"
       x1="112.35884"
       y1="34.048576"
       x2="112.35884"
       y2="89.479515" />
    <linearGradient
       xlink:href="#linearGradient17"
       id="linearGradient3"
       gradientUnits="userSpaceOnUse"
       x1="112.35884"
       y1="34.048576"
       x2="112.35884"
       y2="89.479515" />
  </defs>
  <g
     id="layer1"
     style="display:inline;stroke-width:5.8;stroke-dasharray:none"
     transform="translate(-7.2120961,-7.2959398)">
    <g
       id="g20"
       style="display:none;fill:url(#linearGradient18);fill-opacity:1;stroke:#000000;stroke-width:0;stroke-linecap:round;stroke-linejoin:bevel;stroke-dasharray:none;stroke-opacity:1;paint-order:stroke markers fill"
       transform="translate(-99.903166,-7.8059104)">
      <g
         id="g88"
         style="fill:url(#linearGradient2)">
        <path
           id="path40"
           style="font-size:14.1111px;font-family:'Cutie Molly Demo';-inkscape-font-specification:'Cutie Molly Demo';display:inline;fill:url(#linearGradient44);fill-opacity:1;stroke:url(#linearGradient45);stroke-width:0;stroke-linecap:round;stroke-linejoin:bevel;stroke-dasharray:none;stroke-opacity:1;paint-order:stroke markers fill"
           d="m 245.47438,77.625626 c -2.92228,-0.08942 -6.15696,-0.04364 -9.70547,0.135298 -3.54853,0.178989 -7.0982,0.895131 -10.64664,2.148124 -3.54853,1.163484 -6.99235,3.087072 -10.33217,5.772047 -3.23536,2.595484 -6.00119,6.265702 -8.2972,11.009152 -3.96606,8.054933 -5.53155,15.439083 -4.69662,22.151533 0.83497,6.71244 3.18452,12.48527 7.04611,17.31823 3.86159,4.74346 8.76765,8.45739 14.71663,11.14236 5.94899,2.59548 12.05272,3.89245 18.31485,3.89245 4.27899,0 8.45409,-0.67033 12.52437,-2.01283 4.07039,-1.43197 7.72349,-3.6262 10.95886,-6.57968 3.33983,-2.95346 6.10544,-6.75692 8.29717,-11.41089 2.19137,-4.74345 3.54786,-10.42677 4.07001,-17.04971 0,-4.65397 -0.67816,-9.12775 -2.03501,-13.42372 -1.35677,-4.295967 -3.39132,-8.099422 -6.10493,-11.410883 -2.60921,-3.400971 -5.94963,-6.132299 -10.01998,-8.190778 -4.07029,-2.058508 -8.76717,-3.222235 -14.08998,-3.490703 z m -6.24139,19.618309 c 0.35218,0.01118 0.71238,0.04949 1.07766,0.11657 1.87867,0.358005 3.49477,1.074134 4.85158,2.148124 1.35679,1.073991 2.45341,2.373031 3.28834,3.894521 0.83519,1.43199 1.40997,2.99751 1.7228,4.698 0.31268,1.61097 0.41841,3.2223 0.31459,4.83327 -0.10518,1.253 -0.36919,2.77479 -0.78624,4.56477 -0.31268,1.78999 -0.83479,3.53454 -1.56555,5.23504 -0.73056,1.61096 -1.72146,2.99745 -2.97385,4.16094 -1.25246,1.1635 -2.76292,1.74639 -4.53707,1.74639 -0.83495,0 -1.87866,-0.22486 -3.13113,-0.67233 -2.40042,-0.80549 -4.33386,-1.87969 -5.79506,-3.22219 -1.46087,-1.43198 -2.50462,-3.04121 -3.13111,-4.83119 -0.62645,-1.8795 -0.93657,-3.89469 -0.93657,-6.04266 0.1042,-2.14798 0.52031,-4.34013 1.25105,-6.57761 0.31268,-1.16349 0.83483,-2.37092 1.56558,-3.62392 0.73056,-1.34247 1.56506,-2.5062 2.5044,-3.4907 0.93933,-0.984481 2.03356,-1.746411 3.28601,-2.28343 0.93928,-0.469836 1.93796,-0.687158 2.99466,-0.653595 z" />
        <path
           id="path38"
           style="font-size:14.1111px;font-family:'Cutie Molly Demo';-inkscape-font-specification:'Cutie Molly Demo';display:inline;fill:url(#linearGradient46);fill-opacity:1;stroke:url(#linearGradient47);stroke-width:0;stroke-linecap:round;stroke-linejoin:bevel;stroke-dasharray:none;stroke-opacity:1;paint-order:stroke markers fill"
           d="m 302.9606,93.1163 c -1.85874,0 -3.821,0.19679 -5.88624,0.5903 -2.54713,-0.13117 -4.71562,-0.0656 -6.50553,0.19676 -1.7899,0.19676 -3.26994,0.72153 -4.44026,1.57414 -1.10142,0.78701 -1.92792,1.96778 -2.47865,3.541811 -0.48201,1.574039 -0.72299,3.673179 -0.72299,6.296559 0.13755,4.00067 0.13755,8.13182 0,12.39483 -0.0688,4.26301 -0.20691,8.55891 -0.41338,12.8875 -0.20692,4.32859 -0.41289,8.6245 -0.61927,12.88751 -0.13784,4.19742 0.003,7.32103 0.0716,11.32171 0.48189,1.90195 1.5146,3.3451 3.09795,4.32888 1.65224,1.04935 3.40826,1.57414 5.26697,1.57414 1.58331,0 3.09824,-0.39358 4.54395,-1.1806 1.44565,-0.72143 2.51174,-1.86865 3.20014,-3.44267 0.8262,-2.03313 0.39213,-1.57614 0.52968,-3.80602 0.13813,-2.22989 1.12165,-6.00728 1.46561,-8.10599 2.61597,-0.26232 5.23179,-0.59031 7.84781,-0.98384 2.61597,-0.45909 5.06053,-1.14863 7.33227,-2.06682 2.34063,-0.91819 4.3711,-2.16302 6.09218,-3.73706 1.78987,-1.63961 3.09856,-3.83791 3.92465,-6.59247 1.23895,-3.80392 1.71963,-7.90303 1.4445,-12.2972 -0.20661,-4.39418 -1.23921,-8.45973 -3.09794,-12.19806 -1.78991,-3.80391 -4.40579,-6.952619 -7.84782,-9.44484 -3.44211,-2.49222 -7.70934,-3.73858 -12.80361,-3.73858 z m -0.48355,15.62395 c 1.48334,0.0286 2.67639,0.55948 3.57996,1.59244 1.03244,1.11494 1.75581,2.52606 2.16902,4.23126 0.48201,1.63962 0.72302,3.3772 0.72302,5.21358 0,1.77078 -0.10331,3.24597 -0.30966,4.4265 -0.3442,0.72141 -0.82645,1.2462 -1.44601,1.57414 -0.61956,0.32795 -1.30807,0.5583 -2.0653,0.68945 -0.75731,0.13114 -1.58376,0.22882 -2.47865,0.29437 -0.82612,0.0656 -1.65253,0.22885 -2.47865,0.49116 -0.0688,-1.24611 -0.13696,-2.59011 -0.20603,-4.03297 0,-1.44286 -0.0336,-2.88602 -0.10213,-4.32889 -0.0688,-1.50845 -0.13873,-2.95008 -0.2075,-4.32735 0,-1.37728 -0.0334,-2.62365 -0.10213,-3.73859 h -0.002 c 0,-1.31169 0.75673,-2.00123 2.27121,-2.06682 0.22374,-0.0165 0.44246,-0.0224 0.65436,-0.0183 z" />
        <path
           style="font-size:14.1111px;font-family:'Cutie Molly Demo';-inkscape-font-specification:'Cutie Molly Demo';display:inline;fill:url(#linearGradient48);fill-opacity:1;stroke:url(#linearGradient49);stroke-width:0;stroke-linecap:round;stroke-linejoin:bevel;stroke-dasharray:none;stroke-opacity:1;paint-order:stroke markers fill"
           d="m 185.64629,92.848078 c -1.85877,0 -3.61325,0.52479 -5.26543,1.57414 -1.58328,1.04936 -2.61597,2.65575 -3.09796,4.820053 -0.55069,2.557799 -0.79168,5.213759 -0.72301,7.968309 0.13776,2.68898 0.17259,5.41206 0.10373,8.16662 -3.02905,0.26234 -6.05889,0.52475 -9.08792,0.78707 -2.96017,0.19679 -6.05824,0.4256 -9.29383,0.68792 -0.34446,-2.75456 -0.58545,-5.64087 -0.723,-8.65777 -0.0688,-3.01689 -0.30979,-5.90169 -0.72301,-8.656243 h 0.002 c -0.34423,-2.164299 -1.34204,-3.772219 -2.99422,-4.821569 -1.58337,-1.11494 -3.3394,-1.67176 -5.26696,-1.67176 -1.7899,0 -3.51107,0.52478 -5.16324,1.57414 -1.58329,0.98377 -2.61595,2.52456 -3.09795,4.623283 -0.55078,5.509109 -0.75685,11.281739 -0.61928,17.315529 0.13758,6.03379 0.17099,11.80489 0.10219,17.31401 0.0688,3.34482 0.10372,6.6888 0.10372,10.03362 0,3.27923 0.40537,2.09015 1.02494,5.43497 0.41307,2.29547 1.51555,4.03458 3.30539,5.21511 1.85873,1.18052 3.85432,1.7709 5.98844,1.7709 2.06523,0 3.99264,-0.55834 5.78253,-1.67328 1.7898,-1.11494 2.92559,-2.78693 3.40758,-5.01681 0.27525,-1.63962 0.28251,1.22145 0.21362,-0.41817 0,-1.7052 -0.0684,-3.37719 -0.20591,-5.01681 -0.0687,-1.7052 -0.13705,-3.37719 -0.20591,-5.01681 0,-1.63962 0.13772,-3.31313 0.41336,-5.01833 3.09788,-0.32794 6.12619,-0.52471 9.08639,-0.5903 3.029,-0.13117 6.09225,-0.0656 9.1901,0.19676 0.20636,1.7052 0.30965,3.41075 0.30965,5.11596 v 5.11595 c 0,1.63962 0.0349,3.3116 0.10372,5.01681 0.13752,1.63961 0.41349,3.27956 0.8267,4.91918 0.55075,2.09871 1.68662,3.7051 3.40763,4.82004 1.72107,1.04935 3.57863,1.57414 5.57503,1.57414 2.06527,0 3.95935,-0.55682 5.68033,-1.67176 1.78991,-1.11494 2.96061,-2.78845 3.51133,-5.01833 0.41271,-4.3286 0.54937,-8.72214 0.41182,-13.18189 -0.13755,-4.52535 -0.44691,-9.01805 -0.92892,-13.47781 -0.41306,-4.45976 -0.89525,-8.9189 -1.44601,-13.37867 -0.4821,-4.45976 -0.86121,-8.85482 -1.13637,-13.18342 -0.13755,-2.492211 -1.1006,-4.361002 -2.8905,-5.607112 -1.72102,-1.31169 -3.61509,-1.96767 -5.6803,-1.96767 z"
           id="path36" />
      </g>
      <g
         id="g87"
         style="fill:url(#linearGradient3)">
        <path
           id="path35"
           style="font-size:14.1111px;font-family:'Cutie Molly Demo';-inkscape-font-specification:'Cutie Molly Demo';display:inline;fill:url(#linearGradient42);fill-opacity:1;stroke:url(#linearGradient43);stroke-width:0;stroke-linecap:round;stroke-linejoin:bevel;stroke-dasharray:none;stroke-opacity:1;paint-order:stroke markers fill"
           d="m 217.53713,20.137597 c -1.12447,0 -2.44747,0.15828 -3.96879,0.473382 -5.02698,0.630154 -9.39221,2.645598 -13.09639,6.048439 -3.7041,3.402844 -6.25105,8.003912 -7.64007,13.801345 -1.05835,4.285061 -1.32206,8.412685 -0.79289,12.382665 0.59529,3.969983 1.81922,7.467325 3.67129,10.492071 1.85207,3.02475 4.26638,5.45061 7.24289,7.278061 2.97654,1.827453 6.34955,2.740629 10.11978,2.740629 2.05054,0 4.1676,-0.282898 6.35036,-0.850034 2.24895,-0.567139 4.56268,-1.481785 6.94391,-2.742095 0.92606,1.890463 2.14996,3.246311 3.67129,4.065511 1.52135,0.882221 3.07601,1.323417 4.66345,1.323417 1.32294,0 2.58034,-0.252127 3.77095,-0.756238 1.19061,-0.504124 2.18287,-1.197441 2.97659,-2.079655 0.86009,-0.945236 1.42249,-2.079747 1.68687,-3.403072 0.26489,-1.32333 0.13187,-2.803759 -0.39717,-4.442165 -1.05818,-2.8357 -1.81877,-5.671977 -2.2819,-8.50768 -0.39709,-2.898714 -0.7614,-5.798019 -1.09185,-8.69674 -0.46299,-1.953481 -0.72819,-4.253284 -0.79435,-6.899938 0,-2.646659 -0.23171,-5.198575 -0.6947,-7.656178 -0.39691,-2.520622 -1.22302,-4.694368 -2.47974,-6.521821 -1.19064,-1.82744 -3.20859,-2.929701 -6.05285,-3.307809 -1.91817,-0.693172 -3.86916,-1.323456 -5.85349,-1.890595 -1.9182,-0.567143 -3.90269,-0.8515 -5.95319,-0.8515 z m -0.70349,15.501414 c -0.0542,1.65e-4 -0.10725,0.0074 -0.16108,0.01021 -0.009,0.002 -0.0199,0.0063 -0.0227,0.0089 h -0.002 l -0.002,0.0014 -0.002,0.0014 -0.002,0.0014 v 0.0014 0.0014 0.0014 0.0014 0.0014 l 0.002,0.0014 0.002,0.0014 c 0.0921,0.118066 2.2961,0.547884 3.07478,1.289707 0.66162,0.56714 1.12498,1.512568 1.38935,2.835893 0.33092,1.323328 0.49538,2.772977 0.49538,4.34837 0.0661,1.575387 0.034,3.151096 -0.0981,4.726489 -0.13273,1.512371 -0.29856,2.80372 -0.49683,3.874987 -0.13215,1.197297 -0.85934,2.268783 -2.18223,3.214012 -1.3229,0.882206 -2.84406,1.228127 -4.56382,1.039094 -1.25675,-0.189051 -2.21696,-0.817864 -2.87838,-1.889128 -0.66165,-1.134284 -1.0914,-2.490128 -1.2897,-4.065515 -0.13217,-1.638406 -0.065,-3.340174 0.19937,-5.104607 0.33074,-1.82745 0.79256,-3.496966 1.38788,-5.009343 0.59533,-1.512372 1.32385,-2.772938 2.18371,-3.781191 0.87556,-0.953267 1.81132,-1.450225 2.80514,-1.502219 0.0297,-0.0063 0.0813,-0.0099 0.16108,-0.01021 z" />
        <path
           style="font-size:14.1111px;font-family:'Cutie Molly Demo';-inkscape-font-specification:'Cutie Molly Demo';display:inline;fill:url(#linearGradient23);fill-opacity:1;stroke:url(#linearGradient22);stroke-width:0;stroke-linecap:round;stroke-linejoin:bevel;stroke-dasharray:none;stroke-opacity:1;paint-order:stroke markers fill"
           d="m 171.4147,25.598331 c -2.55616,0 -4.81495,0.879108 -6.77664,2.636962 -1.96165,1.69926 -3.68623,3.809113 -5.17237,6.328712 -1.48614,2.519592 -2.76414,5.214155 -3.83415,8.08532 -1.01056,2.812572 -1.87219,5.302693 -2.58552,7.470714 -0.17861,0.527358 -0.32772,1.113429 -0.44651,1.757974 -0.11886,0.644538 -0.5353,1.172004 -1.24864,1.582179 -1.18889,-3.222733 -2.4669,-6.357534 -3.83415,-9.404486 -1.30777,-3.046954 -2.64471,-6.151766 -4.01197,-9.315905 -0.53502,-1.406283 -1.27744,-2.637032 -2.22858,-3.691747 -0.89164,-1.11331 -1.9327,-2.021037 -3.1216,-2.724181 -1.18893,-0.761727 -2.46693,-1.347798 -3.83416,-1.757976 -1.36725,-0.410175 -2.7343,-0.615972 -4.10153,-0.615972 -2.25889,0 -4.36973,0.557451 -6.33143,1.670759 -1.90226,1.054713 -3.35838,2.752956 -4.36891,5.096765 -1.12948,3.6329 -1.93216,7.325149 -2.40771,11.075244 -0.47558,3.750095 -0.77282,7.558194 -0.8917,11.425474 -0.0594,3.808691 8.2e-4,7.618153 0.17913,11.426839 0.17837,3.80869 1.40125,15.447602 1.63901,19.197692 -0.0595,1.289092 0.44106,3.521402 0.85721,4.576121 0.47556,0.996118 0.48378,1.632586 1.19711,2.394323 0.77282,0.703128 1.63443,1.230599 2.58553,1.582181 0.95112,0.410173 1.9319,0.615973 2.94245,0.615973 1.54558,0 2.94278,-0.468852 4.19112,-1.406381 1.30781,-0.937519 2.1995,-2.432688 2.67508,-4.483524 0.29741,-3.867281 -0.27552,-16.412317 -0.2161,-20.279597 0.0594,-3.867287 0.20846,-7.733993 0.44649,-11.601274 0,-0.468762 0.0302,-0.967603 0.0896,-1.49496 0.11885,-0.585952 0.47504,-1.200647 1.06949,-1.845193 0.83225,2.402402 1.54588,4.833917 2.14033,7.294916 0.59445,2.460998 1.21775,4.892511 1.87163,7.294916 0.71333,2.343807 1.51603,4.658103 2.40772,6.943317 0.95114,2.285218 2.20034,4.4823 3.74591,6.591727 1.07001,1.347691 2.2577,2.344016 3.56545,2.988559 1.36728,0.644548 2.73566,0.967566 4.10287,0.967566 1.60501,0 3.15014,-0.440237 4.63629,-1.319164 1.48613,-0.937528 2.73403,-2.255503 3.7446,-3.954758 1.12946,-2.461001 2.11027,-4.951125 2.94245,-7.470715 0.83226,-2.519591 1.63495,-5.039699 2.40771,-7.559293 0.83226,-2.519596 1.67364,-5.03533 2.49727,-7.557931 0.84083,-2.575214 1.78289,-5.098295 2.85292,-7.559293 0.17863,4.160258 0.32772,8.11556 0.4465,11.86565 0.17861,3.691504 0.38672,7.382385 0.62432,11.07388 l -0.1772,-3.760841 c 0.0595,1.347689 0.26752,2.784244 0.62432,4.307719 0.35668,1.46488 0.89226,2.811482 1.60558,4.041982 0.71333,1.171908 1.63387,2.139608 2.76333,2.901335 1.18891,0.703136 2.6463,0.966188 4.37023,0.790416 1.66447,-0.117201 3.12058,-0.644653 4.36892,-1.58218 1.30776,-0.996119 2.1995,-2.344078 2.67506,-4.043341 0.59442,-2.402405 0.74221,-4.833918 0.4452,-7.294918 -0.23806,-2.460996 -0.24011,-1.160293 -0.35887,-3.621291 -0.29706,-3.164144 -0.41509,-6.533368 -0.35561,-10.107675 0.11878,-3.632901 -0.0304,-7.17795 -0.44652,-10.635069 -0.41612,-3.457116 -1.338,-6.680506 -2.76464,-9.668863 -1.36725,-2.988353 -3.68496,-5.44849 -6.95444,-7.382131 -2.25889,-1.230501 -4.33965,-1.846556 -6.24186,-1.846556 z"
           id="path32" />
        <path
           style="font-size:14.1111px;font-family:'Cutie Molly Demo';-inkscape-font-specification:'Cutie Molly Demo';display:inline;fill:url(#linearGradient50);fill-opacity:1;stroke:url(#linearGradient51);stroke-width:0;stroke-linecap:round;stroke-linejoin:bevel;stroke-dasharray:none;stroke-opacity:1;paint-order:stroke markers fill"
           d="m 300.40886,15.930973 c -2.29371,0.470853 -3.9257,1.263049 -5.13072,3.017665 -1.35435,2.103905 -1.55762,4.221808 -2.18505,6.209068 -0.54923,4.563333 -0.37,2.82509 -0.29156,7.388423 0.0784,4.563334 -0.002,7.331736 0.3114,11.895076 0.392,4.563334 0.51628,7.406958 1.18227,12.434248 0.73097,5.766927 0.36313,2.658658 1.15036,8.06847 0.31408,3.312101 0.42337,4.68108 0.72872,7.835373 0.30526,3.082605 0.21556,2.826717 0.59775,6.052707 0.15261,2.222335 1.6977,5.818377 3.53111,7.108773 1.83346,1.290387 3.81912,1.935712 5.95814,1.935712 1.29869,0 2.52206,-0.286821 3.66798,-0.860319 1.14586,-0.501817 2.46399,-1.817671 3.30434,-3.036374 0.6875,-1.003643 1.14194,-1.682188 2.07838,-3.661706 0.74148,-1.595809 0.7701,-2.279326 0.9991,-3.354653 0.53445,-2.365713 0.86605,-2.636876 1.18009,-4.992147 0.39194,-2.355271 0.586,-2.126698 1.05677,-4.261163 0.54906,-2.208066 1.15087,-2.569251 1.93516,-4.335702 0.78431,-1.840058 2.01155,-2.446081 3.42334,-3.770922 1.0196,-0.956807 1.79641,-1.793329 2.97293,-2.23496 1.17651,-0.515225 1.36152,-0.773728 2.30268,-0.773728 0.78422,0 2.8755,0.276878 3.42463,0.644914 0.47081,0.368014 1.07535,0.551365 1.16736,3.725511 0.064,2.207136 -0.12411,4.168226 -0.41874,8.363606 -0.27493,3.446157 -0.66377,5.951496 -0.74246,9.263596 0,3.312095 0.58717,12.202465 0.90061,14.70494 0.39212,2.796872 0.22034,3.459656 1.648,5.943797 2.19609,1.545652 4.54918,2.319472 7.05906,2.319472 2.11771,0 4.03894,-0.6266 5.76442,-1.877842 1.72529,-1.251233 3.70444,-2.373178 4.09686,-5.022841 1.20971,-5.630669 0.68793,-13.565131 0.76622,-17.171633 0.0784,-3.606508 0.0784,-7.212036 0,-10.818545 0,-3.680109 -0.15571,-7.323296 -0.46923,-10.929808 -0.31376,-3.606505 -0.90291,-7.176077 -1.76563,-10.708985 -0.47062,-1.840055 -1.25501,-3.423679 -2.35304,-4.74852 -1.01966,-1.398442 -2.27397,-2.538649 -3.76416,-3.421875 -1.41182,-0.956812 -3.02033,-1.655319 -4.82424,-2.096951 -1.72554,-0.441629 -3.48953,-0.662465 -5.29345,-0.662465 -2.35303,0 -4.66813,0.366375 -6.94267,1.102398 -2.19609,0.736023 -4.15534,1.877944 -5.88084,3.423586 -1.41179,1.17764 -2.74555,2.429127 -4.0005,3.753971 -1.17652,1.251238 -2.43253,2.50273 -3.7659,3.753964 -0.62769,-2.281667 -0.36157,-0.0011 -0.67505,-2.356364 -0.3141,-2.355268 -0.45685,-3.78089 -0.61357,-6.209765 -0.15739,-2.428869 -0.30802,-4.214187 -0.54312,-6.643056 -0.15739,-2.428872 -0.16207,-2.934418 -0.47555,-5.289688 0.0784,-1.324839 -0.0331,-2.888308 -0.42495,-4.139545 -0.31375,-1.32484 -0.50682,-2.311898 -1.52928,-3.533145 -0.59053,-0.705341 -0.80993,-1.177591 -1.73974,-1.4345 -3.05061,-0.842889 -4.15529,-0.865544 -4.89731,-0.939149 z"
           id="path6" />
        <path
           d="m 282.89748,35.459065 q -2.61404,0.164493 -5.07432,0.08225 -2.38339,-0.164493 -5.07433,-0.08225 -0.15375,2.960883 -0.15375,6.168508 0.0769,3.125378 0.23064,6.333002 0.15376,3.125377 0.30754,6.250754 0.23065,3.043131 0.4613,5.757274 0.30753,2.385157 0.38441,5.428288 0.077,2.960884 -0.61506,5.59278 -0.61508,2.54965 -2.30652,4.276834 -1.61456,1.727182 -4.84367,1.644934 -1.76832,0 -3.07535,-0.904715 -1.30703,-0.822467 -2.22962,-2.138416 -0.84573,-1.398194 -1.30702,-3.04313 -0.38443,-1.727183 -0.23067,-3.454364 -0.0769,-3.701105 -0.0769,-7.731197 0.0769,-4.112339 0.0769,-8.224678 0,-4.194585 -0.0769,-8.224678 0,-4.112338 -0.15378,-7.813443 -1.69144,-0.328988 -3.45977,-0.328988 -1.69144,-0.08225 -3.38288,-0.08225 -1.69145,-0.08225 -3.38288,-0.24674 -1.69144,-0.164494 -3.30601,-0.740222 -2.07585,-0.740221 -2.99845,-2.631896 -0.92261,-1.891676 -0.76885,-3.947845 0.0769,-2.138416 1.23014,-3.865598 1.15326,-1.80943 3.30601,-2.302909 6.76576,-0.411236 13.45464,-0.740222 6.68888,-0.411235 13.53154,-0.411235 2.69092,0 5.22809,0.08225 2.61404,0.08225 5.30497,0.24674 2.07586,0.411233 3.38288,1.644935 1.38391,1.233701 1.99899,2.878636 0.61506,1.644936 0.46129,3.454364 -0.15377,1.809429 -0.99949,3.372119 -0.76883,1.562689 -2.3065,2.631897 -1.4608,0.986962 -3.53666,1.069209 z"
           id="text87"
           style="font-size:78.9471px;font-family:'Cutie Molly Demo';-inkscape-font-specification:'Cutie Molly Demo';fill:#f2f2f2;stroke-width:0"
           aria-label="T" />
      </g>
      <text
         xml:space="preserve"
         transform="matrix(0.26458333,0,0,0.26458333,99.903166,7.8059104)"
         id="text86"
         style="font-style:normal;font-variant:normal;font-weight:normal;font-stretch:normal;font-size:53.3333px;font-family:'Cutie Molly Demo';-inkscape-font-specification:'Cutie Molly Demo';writing-mode:lr-tb;direction:ltr;white-space:pre;shape-inside:url(#rect86);fill:#f2f2f2;fill-opacity:1;stroke:#000000;stroke-width:0;stroke-linecap:round;stroke-linejoin:bevel;stroke-dasharray:none;stroke-opacity:1;paint-order:stroke markers fill" />
    </g>
    <g
       id="g103"
       transform="matrix(1.0562988,0,0,1.0562988,-13.376654,-8.0678975)">
      <path
         style="fill:#ffffff;fill-opacity:1;stroke:#000000;stroke-width:0;stroke-linecap:round;stroke-linejoin:bevel;stroke-dasharray:none;stroke-opacity:1;paint-order:stroke markers fill"
         d="m 26.304636,89.996217 c -2.041768,-0.667203 -3.591151,-1.993951 -4.407703,-3.774344 -1.373761,-2.995333 -3.22402,-28.566832 -2.012282,-36.052149 0.688799,-4.254942 0.365193,-13.896855 3.035315,-16.920109 2.670121,-3.023252 7.293057,-5.866637 12.279309,-4.926545 2.992322,0.564164 5.138676,1.649617 7.407531,3.746133 2.051204,1.895398 2.997776,7.356573 6.492318,14.994731 1.93115,4.22099 4.194039,10.510721 4.578784,11.466417 0.384746,0.955697 0.803365,1.848404 0.930269,1.983794 0.325925,0.347718 1.553265,-0.857173 1.553265,-1.524855 0,-1.037979 3.193087,-9.135151 4.905979,-12.440801 1.982978,-3.82687 3.776506,-6.245071 6.178858,-8.330902 2.630586,-2.283996 4.01145,-2.844628 7.021191,-2.850617 2.25072,-0.0045 2.773012,0.106514 4.902376,1.04179 6.890405,3.026466 10.265053,9.014831 10.955243,19.440259 0.160902,2.430429 0.219327,4.850403 0.129836,5.377717 -0.173881,1.024554 0.376444,11.237494 0.876859,16.272737 0.607646,6.114272 -0.701705,9.738088 -4.111372,11.378784 -1.550737,0.746196 -1.984209,0.823138 -4.14435,0.73561 -2.144947,-0.08691 -2.546505,-0.197112 -3.621204,-0.993779 C 76.048267,86.243059 75.25151,83.506518 74.596,72.618776 74.328712,68.179281 74.0959,63.32355 74.078638,61.828264 c -0.05108,-4.425027 -0.269489,-4.61226 -1.613382,-1.383118 -0.63225,1.519193 -2.152958,6.871425 -4.200453,11.573477 -2.096808,4.815297 -5.911099,8.395175 -8.911037,10.222705 -3.909878,2.38186 -9.229037,0.179275 -11.978544,-2.228092 -3.067849,-2.686096 -3.487283,-2.502579 -6.644017,-9.228421 -2.400751,-5.115119 -2.885369,-9.792821 -3.18167,-9.792821 -0.146753,0 -0.479262,0.298189 -0.73891,0.662645 -0.373645,0.524469 -0.543007,2.562636 -0.812188,9.774165 -0.477224,12.785138 -0.646919,14.401481 -1.682606,16.026854 -1.611244,2.528631 -4.877707,3.564508 -8.011195,2.540559 z"
         id="path97" />
      <path
         style="fill:#ffffff;fill-opacity:1;stroke:#000000;stroke-width:0;stroke-linecap:round;stroke-linejoin:bevel;stroke-dasharray:none;stroke-opacity:1;paint-order:stroke markers fill"
         d="m 136.55343,71.195798 c -2.14504,-0.548487 -4.17366,-0.943696 -5.49305,-1.844583 l -2.3136,-1.579734 -2.82434,1.220272 c -4.12855,1.783768 -7.15891,2.478175 -10.92099,2.502532 -8.02477,0.05197 -14.80131,-4.484629 -18.63707,-12.476704 -2.301208,-4.794727 -3.006775,-8.025268 -3.014236,-13.801114 -0.0054,-4.172466 0.153141,-5.616943 0.989581,-9.01673 2.958362,-12.024543 10.064875,-19.20654 20.941515,-21.163961 5.04606,-0.908116 7.10461,-0.668632 14.40658,1.676009 6.08642,1.954332 7.42132,2.808764 8.8329,5.653707 1.47132,2.96535 2.41113,7.806812 2.43541,12.546142 0.008,1.518124 0.1817,4.002323 0.38648,5.520447 0.20478,1.518121 0.68477,5.244422 1.06664,8.280667 0.78325,6.227635 4.39938,6.750396 5.68468,10.84014 1.53827,4.894649 1.12622,7.764616 -1.47787,10.293676 -2.73014,2.651474 -6.15718,2.347857 -10.06263,1.349234 z m -17.04526,-17.34467 c 3.00339,-1.254895 3.63771,-2.501725 4.20095,-8.25749 0.48085,-4.913868 0.0464,-10.171131 -1.0092,-12.212452 -0.66148,-1.27916 -2.54564,-2.515129 -3.83415,-2.515129 -3.37344,0 -6.47921,5.803085 -7.19741,13.448276 -0.26675,2.839566 0.41235,6.377861 1.56038,8.129979 1.20541,1.839682 3.834,2.428581 6.27943,1.406816 z"
         id="path98" />
      <path
         style="fill:#ffffff;fill-opacity:1;stroke:#000000;stroke-width:0;stroke-linecap:round;stroke-linejoin:bevel;stroke-dasharray:none;stroke-opacity:1;paint-order:stroke markers fill"
         d="m 168.27662,73.339297 c -0.70845,-0.235487 -2.13227,-1.268939 -3.16403,-2.296551 -3.09933,-3.08687 -3.09801,-3.077943 -3.07109,-20.751075 0.0128,-8.368046 0.44623,-14.760746 0.3235,-14.88351 -0.12277,-0.122762 0.84632,-2.218283 -2.63606,-2.382308 -10.65417,-0.501828 -11.69593,-0.865587 -13.3592,-4.301439 -2.03879,-4.211585 -0.006,-10.303476 3.85205,-11.545547 2.21065,-0.71165 16.54209,-0.940417 30.38383,-0.943882 15.33863,-0.0038 16.13807,0.107861 18.7199,2.615579 2.06668,2.007362 2.90408,3.901192 2.88973,6.53532 -0.0148,2.716715 -0.75113,4.531759 -2.69326,6.638718 -2.28773,2.48189 -3.54311,2.762533 -12.3574,2.762533 h -7.47905 v 8.065987 c 0,5.777095 0.10168,6.763761 0.13432,8.592332 0.0338,1.89581 0.39965,6.249884 0.33685,8.037299 0.0289,5.837385 -0.029,4.375886 -0.21595,7.57242 -1.96895,4.613451 -2.53887,4.738733 -4.37984,5.677927 -1.8342,0.935738 -5.40016,1.232495 -7.28435,0.606197 z"
         id="path99" />
      <path
         style="fill:#ffffff;fill-opacity:1;stroke:#000000;stroke-width:0;stroke-linecap:round;stroke-linejoin:bevel;stroke-dasharray:none;stroke-opacity:1;paint-order:stroke markers fill"
         d="m 245.50098,89.811223 c -1.8203,-0.470198 -3.95562,-2.537243 -4.98781,-3.774959 -1.88411,-2.259264 -0.2327,-2.510819 0.99913,-16.005485 1.10827,-12.14107 -0.0213,-12.600704 -0.68218,-13.090665 -0.98921,-0.73339 -6.13041,-0.140102 -8.04476,1.029737 -3.5551,2.17247 -5.37252,2.382052 -7.17294,12.905195 -1.00687,5.884956 -1.27404,6.881237 -2.3601,8.800783 -1.48101,2.617593 -3.50164,4.504428 -5.15145,4.81035 -2.82962,0.524689 -6.06007,-0.767229 -7.64874,-3.058879 -0.65714,-0.947915 -0.87936,-2.052241 -1.40172,-6.966061 -0.34143,-3.21176 -0.66593,-4.32626 -0.88081,-7.10767 -0.21488,-2.78141 -0.8017,-9.60851 -1.30405,-15.17133 -0.76093,-8.426368 -0.85456,-6.011002 -0.86212,-15.280004 -0.009,-11.033595 -0.30427,-10.125899 0.49824,-11.736131 1.0165,-2.040646 2.86825,-3.308139 5.14958,-3.524806 2.43249,-0.231022 3.95645,0.152563 5.32512,1.340347 2.52475,2.191058 2.58221,1.32254 3.64564,10.380311 0.53997,4.599261 1.33186,9.279199 1.52863,10.391764 0.19678,1.112564 0.44757,2.515912 0.55731,3.11855 0.10975,0.602641 0.32253,1.095708 0.47286,1.095708 0.15031,0 1.39654,-1.227364 2.76939,-2.727476 3.04248,-3.324531 8.73354,-8.116749 11.06215,-8.872435 4.27739,-1.38811 9.11467,-0.909214 12.77671,1.264905 3.91795,2.326052 5.36269,5.402124 6.52583,13.89449 0.55037,4.018311 -1.59526,31.332203 -2.07253,33.053646 -1.0643,3.838806 -5.00344,6.195658 -8.74138,5.230115 z"
         id="path100" />
      <path
         style="fill:#ffffff;fill-opacity:1;stroke:#000000;stroke-width:0;stroke-linecap:round;stroke-linejoin:bevel;stroke-dasharray:none;stroke-opacity:1;paint-order:stroke markers fill"
         d="m 192.33068,151.72568 c -1.56001,-0.5838 -3.15181,-1.94262 -3.73763,-3.19064 -0.39427,-0.83994 -0.47441,-2.1036 -0.4721,-7.4449 0.002,-3.53829 0.14131,-9.01699 0.31062,-12.1749 0.1693,-3.1579 0.40461,-11.50538 0.52291,-18.54993 0.20897,-12.443509 0.23397,-12.851491 0.878,-14.325146 0.80364,-1.838921 1.49122,-2.525914 3.36806,-3.365189 1.25044,-0.559165 2.29842,-0.681224 8.17571,-0.952217 6.01703,-0.277436 6.95792,-0.257353 8.75635,0.186908 3.4735,0.858055 5.52749,2.070442 8.32485,4.913835 2.16029,2.195832 2.73597,3.005335 3.99976,5.624249 2.38146,4.93505 2.75775,6.75648 2.76102,13.36475 0.003,5.27092 -0.0437,5.74768 -0.79917,8.24443 -0.99374,3.28383 -1.90045,4.91178 -3.70698,6.65569 -3.12808,3.01962 -8.21596,4.845 -15.91901,5.71125 -1.19163,0.13401 -1.82039,0.33642 -1.82039,0.58602 0,0.20972 -0.19383,2.23797 -0.43072,4.50722 -0.63298,6.06345 -1.69215,8.46723 -4.3304,9.82785 -1.53147,0.78983 -4.30743,0.96953 -5.88088,0.38072 z m 13.95529,-30.46682 c 2.30573,-0.36464 3.51835,-0.91585 3.99482,-1.81586 0.94805,-1.79076 0.44901,-8.74718 -0.80813,-11.26495 -1.35125,-2.70629 -4.29649,-3.96247 -6.17379,-2.6332 l -0.67723,0.47951 0.19212,7.10241 c 0.22034,8.14658 0.29616,8.80787 0.98556,8.59693 0.26623,-0.0814 1.38522,-0.29064 2.48665,-0.46484 z"
         id="path101" />
      <path
         style="fill:#ffffff;fill-opacity:1;stroke:#000000;stroke-width:0;stroke-linecap:round;stroke-linejoin:bevel;stroke-dasharray:none;stroke-opacity:1;paint-order:stroke markers fill"
         d="m 143.87952,156.04418 c -7.23028,-0.93567 -14.34725,-4.66122 -19.71349,-10.31951 -4.45403,-4.69642 -6.83122,-8.96465 -8.58056,-15.40635 -0.85964,-3.16549 -0.94977,-4.1345 -0.94168,-10.12504 0.0101,-7.49852 0.52329,-10.1361 3.40439,-17.49801 2.20426,-5.632394 3.83509,-8.201451 7.58494,-11.94858 5.94758,-5.943256 12.2649,-8.246383 22.68426,-8.270079 15.65068,-0.0356 26.50059,10.663195 29.19139,28.784819 2.03365,13.69595 -2.20446,28.70937 -10.47029,37.09081 -4.30517,4.36538 -9.24772,6.86322 -15.22566,7.69467 -3.18949,0.44362 -4.48767,0.44317 -7.9333,-0.003 z m 5.23395,-22.5544 c 2.44576,-1.04212 4.30767,-4.25282 5.41023,-9.32945 1.097,-5.05102 1.26644,-8.33077 0.59427,-11.50296 -1.06365,-5.01972 -3.37718,-8.50581 -6.62316,-9.97994 -2.18379,-0.99175 -3.83267,-0.8873 -5.81238,0.3682 -5.76389,3.65534 -8.63572,16.51457 -5.31034,23.77815 1.25801,2.74785 2.90907,4.41152 5.82665,5.87113 2.81254,1.40705 4.07866,1.57721 5.91473,0.79487 z"
         id="path102" />
      <path
         style="display:inline;fill:#ffffff;fill-opacity:1;stroke:#000000;stroke-width:0;stroke-linecap:round;stroke-linejoin:bevel;stroke-dasharray:none;stroke-opacity:1;paint-order:stroke markers fill"
         d="m 66.113017,149.48153 c -2.561714,-0.40386 -4.874848,-2.17368 -5.626908,-4.30525 -0.97883,-2.7743 -1.11914,-5.96082 -1.135914,-25.79735 -0.01779,-21.030751 -0.194016,-15.93244 0.802534,-18.99506 0.828843,-2.54722 5.159298,-2.929901 7.756719,-2.229323 1.825741,0.492441 3.124067,2.376583 3.924761,4.096183 0.800693,1.7196 0.455087,3.26649 0.61256,5.67533 0.390764,5.97737 1.358583,4.64135 1.537331,4.82009 0.08221,0.0822 3.190564,-0.10968 6.90746,-0.42642 3.716895,-0.31673 7.039064,-0.57568 7.382603,-0.57542 l 0.624612,4e-4 v -5.63994 c 0,-5.90792 0.263779,-8.246426 1.11934,-9.923467 1.256771,-2.463474 4.401993,-3.94134 7.161705,-3.365116 1.850675,0.386419 3.87115,1.803853 4.69978,3.297053 0.53002,0.955125 0.69269,1.943199 1.04846,6.36836 0.23159,2.8808 0.72227,8.11104 1.09037,11.62275 1.24896,11.91508 1.37259,13.87281 1.35861,21.51445 -0.0118,6.43927 -0.0867,7.8267 -0.47861,8.86432 -0.67824,1.79573 -1.58395,2.84234 -3.26581,3.77385 -1.30507,0.72283 -1.767525,0.82572 -3.711655,0.82572 -1.971685,0 -2.392147,-0.0967 -3.747681,-0.86228 -3.184039,-1.79815 -3.838115,-3.99088 -4.048794,-13.57323 -0.08056,-3.6644 -0.208586,-6.96067 -0.284493,-7.32506 l -0.138011,-0.66252 -6.860102,0.13203 c -4.392313,0.0845 -7.074727,0.24689 -7.456733,0.45134 -0.764667,0.40923 -0.875166,2.16785 -0.569895,9.06984 0.36916,8.34642 -0.309592,10.59981 -3.693988,12.26368 -2.015455,0.99086 -3.156153,1.19698 -5.008251,0.90499 z"
         id="path103" />
    </g>
  </g>
</svg>
